<?xml version="1.0" encoding="UTF-8"?>
<svg xmlns="http://www.w3.org/2000/svg" xmlns:xlink="http://www.w3.org/1999/xlink" width="20px" height="16px" viewBox="0 0 20 16" version="1.1">
<g id="surface1">
<path style=" stroke:none;fill-rule:nonzero;fill:rgb(100%,40%,60%);fill-opacity:1;" d="M 19.53125 3.289062 C 19.789062 3.488281 20.136719 3.148438 19.945312 2.886719 C 19.730469 2.589844 19.488281 2.304688 19.226562 2.042969 C 17.382812 0.199219 14.691406 -0.449219 12.207031 0.347656 C 12.054688 0.398438 11.96875 0.5625 12.019531 0.71875 C 12.070312 0.871094 12.234375 0.957031 12.386719 0.90625 C 14.472656 0.234375 16.71875 0.679688 18.378906 2.058594 C 16.773438 1.589844 14.976562 2 13.738281 3.238281 C 13.066406 3.910156 12.621094 4.753906 12.445312 5.683594 C 12.410156 5.882812 12.472656 6.089844 12.621094 6.234375 L 13.238281 6.851562 C 13.410156 7.046875 13.3125 7.277344 13.058594 7.289062 L 8.566406 7.289062 C 8.203125 7.289062 7.90625 6.996094 7.90625 6.632812 L 7.90625 2.140625 C 7.90625 1.902344 8.175781 1.792969 8.34375 1.960938 L 8.910156 2.523438 C 9.027344 2.644531 9.183594 2.707031 9.351562 2.707031 C 9.554688 2.707031 9.714844 2.597656 9.855469 2.457031 C 10.308594 2.003906 10.824219 1.621094 11.386719 1.328125 C 11.53125 1.25 11.585938 1.074219 11.511719 0.929688 C 11.433594 0.789062 11.257812 0.734375 11.113281 0.808594 C 10.792969 0.976562 9.332031 2.117188 9.324219 2.109375 L 8.757812 1.546875 C 8.511719 1.300781 8.160156 1.230469 7.839844 1.363281 C 7.519531 1.496094 7.320312 1.792969 7.320312 2.140625 L 7.320312 6.632812 C 7.320312 7.316406 7.878906 7.875 8.566406 7.875 L 13.058594 7.875 C 13.777344 7.882812 14.179688 6.953125 13.652344 6.4375 C 13.636719 6.40625 13.015625 5.832031 13.023438 5.789062 C 13.175781 4.976562 13.566406 4.238281 14.152344 3.652344 C 15.597656 2.207031 17.910156 2.050781 19.53125 3.289062 Z M 15.386719 12.183594 L 13.125 9.921875 C 12.859375 9.652344 12.492188 9.527344 12.117188 9.570312 C 11.746094 9.613281 11.417969 9.824219 11.21875 10.144531 L 10.648438 11.066406 C 10.484375 11.335938 10.15625 11.441406 9.867188 11.324219 C 9.660156 11.238281 9.457031 11.144531 9.257812 11.046875 C 9.109375 10.972656 8.933594 11.035156 8.863281 11.179688 C 8.792969 11.324219 8.851562 11.5 8.996094 11.570312 C 9.207031 11.675781 9.425781 11.777344 9.644531 11.867188 C 10.199219 12.09375 10.832031 11.886719 11.148438 11.375 L 11.398438 10.96875 L 14.519531 14.085938 C 13.511719 15.136719 12.015625 15.617188 10.558594 15.292969 C 8.410156 14.8125 6.199219 13.519531 4.328125 11.648438 C 2.457031 9.777344 1.164062 7.566406 0.6875 5.417969 C 0.363281 3.960938 0.839844 2.464844 1.890625 1.457031 L 5.011719 4.578125 L 4.601562 4.828125 C 4.089844 5.144531 3.882812 5.78125 4.113281 6.335938 C 4.65625 7.652344 5.449219 8.8125 6.464844 9.792969 C 6.941406 10.246094 7.460938 10.660156 8.015625 11.015625 C 8.152344 11.105469 8.335938 11.066406 8.421875 10.929688 C 8.507812 10.792969 8.46875 10.609375 8.332031 10.523438 C 7.8125 10.1875 7.320312 9.800781 6.871094 9.367188 C 5.914062 8.445312 5.167969 7.351562 4.65625 6.113281 C 4.535156 5.824219 4.644531 5.492188 4.910156 5.328125 L 5.835938 4.757812 C 6.15625 4.5625 6.363281 4.234375 6.40625 3.859375 C 6.449219 3.484375 6.324219 3.117188 6.058594 2.851562 L 3.792969 0.589844 C 3.390625 0.1875 2.773438 0.113281 2.289062 0.414062 C 2.089844 0.535156 1.902344 0.671875 1.726562 0.820312 C 1.71875 0.824219 1.714844 0.832031 1.707031 0.835938 C 0.355469 1.976562 -0.277344 3.789062 0.113281 5.546875 C 0.617188 7.800781 1.964844 10.117188 3.914062 12.0625 C 5.863281 14.011719 8.175781 15.359375 10.433594 15.863281 C 10.777344 15.941406 11.125 15.976562 11.472656 15.976562 C 13.113281 15.984375 14.699219 15.101562 15.5625 13.6875 C 15.863281 13.203125 15.789062 12.585938 15.386719 12.183594 Z M 2.34375 1.082031 C 2.425781 1.023438 2.507812 0.964844 2.597656 0.914062 C 2.847656 0.757812 3.171875 0.792969 3.378906 1.003906 L 5.644531 3.265625 C 5.78125 3.40625 5.847656 3.597656 5.824219 3.792969 C 5.800781 3.984375 5.695312 4.15625 5.527344 4.257812 L 5.523438 4.261719 Z M 14.972656 12.597656 C 15.183594 12.804688 15.21875 13.128906 15.066406 13.378906 C 15.066406 13.378906 15.066406 13.382812 15.066406 13.382812 C 15.011719 13.46875 14.953125 13.550781 14.894531 13.632812 L 11.714844 10.453125 L 11.71875 10.449219 C 11.820312 10.285156 11.992188 10.175781 12.1875 10.152344 C 12.382812 10.128906 12.570312 10.195312 12.710938 10.335938 Z M 14.972656 12.597656 "/>
</g>
</svg>
