<?xml version="1.0" encoding="utf-8"?>
<svg version="1.1" xmlns:xlink="http://www.w3.org/1999/xlink" width="20px" height="18px" xmlns="http://www.w3.org/2000/svg">
  <g transform="matrix(1 0 0 1 -1138 -370 )">
    <path d="M 19.9999214139207 4.66927834403414  C 19.9999214139207 4.33505174893319  19.8698221597026 4.02098248316293  19.633513819362 3.78467414282234  L 16.4390682834443 0.590228606904573  C 16.1923865806411 0.343546904101408  15.838906396121 0.273251656201621  15.516507005949 0.406769404867622  C 15.1942254948958 0.540287153533624  14.9939881649365 0.839935873759323  14.9939881649365 1.18881877264261  L 14.9939881649365 1.99130052102571  C 14.9939881649365 2.00414934498503  14.9880156229126 2.01275452066421  14.9829468208002 2.01774473669734  C 14.9761884179836 2.02438526039497  14.9684083961367 2.02890395995253  14.9591745318234 2.02756799660508  C 14.9273471697224 2.02713577316914  14.8955198076213 2.02693930797099  14.8636138594409 2.02693930797099  C 13.8058845256151 2.02693930797099  12.7899629859567 2.25817884619918  11.8440223498809 2.7142138641561  C 11.6974200190178 2.7849020424522  11.6358478259161 2.96105273911779  11.7065360042122 3.1076550699809  C 11.7772634755479 3.25429669388365  11.9534534652532 3.31582959394573  12.099977210037 3.24514141564963  C 12.9914576931842 2.81535414816619  13.9506793766552 2.60234658032676  14.9511194586991 2.61696359106948  C 15.1205510455878 2.6188889500114  15.2772909806757 2.55539139796776  15.3969775793916 2.4372765208371  C 15.5172142806623 2.3186115411516  15.5834230524405 2.16026059143883  15.5834230524405 1.99130052102571  L 15.5834230524405 1.18881877264261  C 15.5834230524405 1.02940691085981  15.7049171309794 0.966695219608799  15.7421276395099 0.951292348073463  C 15.7793774410801 0.935850183498496  15.9096338674567 0.894317440608571  16.0223263051183 1.00700987827016  L 19.2167718410361 4.20145541418793  C 19.3417630001022 4.32644657325401  19.4106044055356 4.49261683785334  19.4106044055356 4.6693569301134  C 19.4106044055356 4.84609702237346  19.3417630001022 5.01230658001242  19.2167325479964 5.1372977390785  L 16.0223655981579 8.33170398195664  C 15.9095945744171 8.44443571265786  15.7793381480404 8.4028636767283  15.7421276395099 8.38746080519297  C 15.7049171309794 8.372018640618  15.5834230524405 8.30930694936699  15.5834230524405 8.14993438062382  L 15.5834230524405 7.27008463720736  C 15.5834230524405 7.06320678355036  15.4822434753908 6.87051371720014  15.3127333024228 6.75463854332843  C 14.5284442313888 6.21805279412805  13.6098908439359 5.93443563407178  12.656405944251 5.93443563407178  C 10.8943488750403 5.93443563407178  9.325063458259 6.92084810096739  8.51924180150727 8.39520153400027  C 8.69169895244756 6.56112032314596  9.65681459186319 4.87175537725247  11.1744296615298 3.79221840643149  C 11.3070436702842 3.69787581827755  11.3380851715927 3.5139058067254  11.2437425834388 3.38129179797091  C 11.1494392883245 3.24867778921642  10.9655478628516 3.2175577018287  10.8327766819386 3.3119788760619  C 8.99763455901421 4.61733294564201  7.90202673498416 6.73943213699126  7.90202673498416 8.98852643242776  C 7.90202673498416 9.36181030892188  7.9317715659848 9.73517277149526  7.99039678111419 10.098279750725  C 8.01350108841719 10.2412278289024  8.13692052589804 10.3459830725585  8.28124386046255 10.3459830725585  L 8.28529104354454 10.3459830725585  C 8.43138256489245 10.344018420577  8.55397684854104 10.2352945799181  8.57342690315837 10.090499728878  C 8.84619918427649 8.05716351405512  10.6014978506707 6.52383122853618  12.656405944251 6.52383122853618  C 13.4905971756163 6.52383122853618  14.2940612499902 6.7718488946868  14.9799998428278 7.24108637395972  C 14.9886443115466 7.24698032990436  14.9939881649365 7.25810026011992  14.9939881649365 7.27004534416773  L 14.9939881649365 8.14989508758419  C 14.9939881649365 8.49877798646748  15.1942254948958 8.79842670669318  15.516507005949 8.93194445535918  C 15.8388671030814 9.06542291098555  16.1923472876015 8.99508837004613  16.4390682834443 8.7484459602826  L 19.6334352332828 5.55400042436483  C 19.869782866663 5.31769208402424  19.9999214139207 5.00350493913508  19.9999214139207 4.66927834403414  Z M 15.4775676036747 13.8425134971591  L 13.2019505064873 11.5668963999717  C 12.9343256135608 11.2993108000849  12.5653639714261 11.1709797326502  12.1893295821578 11.2149879370368  C 11.8134916580877 11.2589961414235  11.4839802277425 11.4689388521717  11.285353912408 11.791102484106  L 10.7117541198752 12.7214437834482  C 10.5461339578307 12.9901295884447  10.2158366666929 13.0984997917469  9.92632555069195 12.979127537348  C 8.79885107152119 12.514055120276  7.78450125344796 11.852321039851  6.9114884989273 11.0123930246996  C 5.94774811589875 10.0852344615675  5.19780116150225 8.98314328599832  4.68247294674221 7.73684665498354  C 4.56207907331295 7.44556735219923  4.66985988102067 7.11381621859504  4.93882073729459 6.94796029831276  L 5.86872981320089 6.37459626401779  C 6.19089344513513 6.17596994868329  6.40087544892297 5.84649781137769  6.44484436027002 5.4705813012283  C 6.48885256465669 5.09466479107891  6.36056079026161 4.7255852698253  6.09297519037477 4.45796037689884  L 3.81712233494958 2.18210752147365  C 3.41224685459217 1.77727133415587  2.78921641820367 1.70438274564044  2.30190414070051 2.00485661969839  C 2.10092024298815 2.12878686669443  1.91203860148213 2.26627321236316  1.73470911362761 2.41460443697004  C 1.7287365716037 2.4191231365276  1.72296049477795 2.4239561804022  1.71730229707109 2.42898568947497  C 0.358352521434349 3.57685325621419  -0.278784116181664 5.39832140134697  0.115128606118708 7.16666535689868  C 0.62043709577285 9.43513112087325  1.97777585678472 11.7634794772454  3.93712327798253 13.7227876054036  C 5.11277102374085 14.8983960581223  6.40739809350171 15.8499555988652  7.78516923512169 16.5510613050004  C 7.93023913743919 16.6248143403877  8.10768650441261 16.5671714512491  8.18147883283955 16.422062255892  C 8.25527116126649 16.2770316466141  8.19751039300898 16.0995842796407  8.05247978373111 16.0257526581741  C 6.7486581426966 15.3622896840054  5.46974828878812 14.421850073478  4.35394384238776 13.3060456270776  C 2.47275027701593 11.4248913547454  1.17171844179522 9.19905853877044  0.690417999355592 7.03849146162249  C 0.364128598260102 5.57372553025957  0.844250249510799 4.06746614904636  1.90213675549513 3.05531674119246  L 5.03996102130468 6.19318030004165  L 4.62950592931968 6.44626676830466  C 4.11307750944997 6.76469756147396  3.90631753491186 7.40214854340702  4.13783212441748 7.9620743581482  C 4.68439830568413 9.28404938349221  5.48008235821106 10.453253070751  6.50280159372569 11.4371507831103  C 7.42925288214446 12.3285133871386  8.50548923763644 13.0306014192646  9.70153007096323 13.5240041179106  C 10.259373354604 13.7541041579895  10.8952919079914 13.5467154948172  11.2134083568437 13.0307978844627  L 11.4667305833445 12.6199498620814  L 14.6043190909162 15.7575383696532  C 13.5921696830623 16.8155034617168  12.0857924227302 17.2956251129675  10.6210657844069 16.9692964188324  C 10.0930459178461 16.8516530581773  9.55060550574071 16.6810426800996  9.00883307530904 16.4621411563156  C 8.85782992400726 16.4012369448876  8.68611934081996 16.4740862403634  8.62517583635234 16.6250108055859  C 8.5641930388451 16.7759353708084  8.63712092040016 16.9476852470353  8.78804548562267 17.0086680445426  C 9.35979850529277 17.2396325314934  9.93335900478589 17.4199875833995  10.4929311821704 17.5446251051089  C 10.8411853924196 17.62222885838  11.1914042546503 17.6598322973069  11.5382832085124 17.6598322973069  C 13.1911842136284 17.6674158539556  14.7864423296057 16.7791181070185  15.6547792124103 15.3576923983685  C 15.9552137934286 14.870419413905  15.8823644979528 14.2473496844769  15.4775676036747 13.8425134971591  Z M 5.55560358038177 5.87522102334793  L 2.35711086138201 2.67672830434817  C 2.43942977940887 2.61743510754505  2.5239884006947 2.56042090704053  2.61133682779432 2.50658944274611  C 2.86509127773106 2.35004597285637  3.18965178508279 2.38808163521914  3.40038035662363 2.59888879283924  L 5.67623321204882 4.87474164826443  C 5.81564491665946 5.01411405983544  5.88240379099246 5.2063356097101  5.85949594888761 5.40209353315154  C 5.83662739982239 5.59785145659298  5.72727487052943 5.76944416066138  5.5594542982656 5.87286344097007  L 5.55560358038177 5.87522102334793  Z M 15.0607077462298 14.2592161824454  C 15.2712398525725 14.4697089957485  15.3093933940542 14.7935229353472  15.1537536640759 15.0471595061651  C 15.1534786127985 15.047591729601  15.1532428545607 15.048023953037  15.1529678032833 15.0484561764729  C 15.0991363389889 15.1357653105329  15.042161431524 15.2202453457395  14.9829075277605 15.3025642637663  L 11.7846505669986 12.1043073030043  L 11.7870081493764 12.1004565851205  C 11.8904667227247 11.9326753058963  12.0620594267931 11.8233227766034  12.257778057195 11.8004149344985  C 12.4534966875968 11.7775463854333  12.6457968235507 11.8443052597663  12.7851692351217 11.9836776713373  L 15.0607077462298 14.2592161824454  Z " fill-rule="nonzero" fill="#d21212" stroke="none" transform="matrix(1 0 0 1 1138 370 )" />
  </g>
</svg>