<?xml version="1.0" encoding="UTF-8"?>
<svg xmlns="http://www.w3.org/2000/svg" xmlns:xlink="http://www.w3.org/1999/xlink" width="20px" height="17px" viewBox="0 0 20 17" version="1.1">
<defs>
<clipPath id="clip1">
  <path d="M 0.183594 0 L 20 0 L 20 17 L 0.183594 17 Z M 0.183594 0 "/>
</clipPath>
</defs>
<g id="surface1">
<g clip-path="url(#clip1)" clip-rule="nonzero">
<path style=" stroke:none;fill-rule:nonzero;fill:rgb(32.156863%,80%,60%);fill-opacity:1;" d="M 19.816406 4.300781 C 19.816406 3.96875 19.6875 3.65625 19.457031 3.421875 L 16.320312 0.25 C 16.078125 0.00390625 15.730469 -0.0664062 15.414062 0.0664062 C 15.097656 0.199219 14.902344 0.5 14.902344 0.84375 L 14.902344 1.640625 C 14.902344 1.652344 14.894531 1.660156 14.890625 1.667969 C 14.882812 1.671875 14.875 1.675781 14.867188 1.675781 C 14.835938 1.675781 14.804688 1.675781 14.773438 1.675781 C 13.734375 1.675781 12.738281 1.90625 11.808594 2.359375 C 11.667969 2.425781 11.605469 2.605469 11.675781 2.746094 C 11.746094 2.894531 11.917969 2.957031 12.0625 2.886719 C 12.9375 2.457031 13.878906 2.246094 14.859375 2.261719 C 15.027344 2.265625 15.179688 2.203125 15.296875 2.082031 C 15.414062 1.964844 15.480469 1.804688 15.480469 1.640625 L 15.480469 0.84375 C 15.480469 0.683594 15.597656 0.621094 15.636719 0.609375 C 15.671875 0.59375 15.800781 0.550781 15.910156 0.664062 L 19.046875 3.835938 C 19.167969 3.960938 19.238281 4.121094 19.238281 4.300781 C 19.238281 4.472656 19.167969 4.640625 19.046875 4.761719 L 15.910156 7.9375 C 15.800781 8.046875 15.671875 8.007812 15.636719 7.992188 C 15.597656 7.976562 15.480469 7.914062 15.480469 7.753906 L 15.480469 6.882812 C 15.480469 6.675781 15.382812 6.488281 15.214844 6.371094 C 14.445312 5.839844 13.542969 5.558594 12.605469 5.558594 C 10.878906 5.558594 9.335938 6.539062 8.546875 8 C 8.714844 6.179688 9.664062 4.503906 11.152344 3.425781 C 11.28125 3.335938 11.3125 3.15625 11.222656 3.019531 C 11.128906 2.890625 10.949219 2.859375 10.816406 2.953125 C 9.015625 4.25 7.941406 6.355469 7.941406 8.589844 C 7.941406 8.960938 7.96875 9.332031 8.027344 9.691406 C 8.050781 9.835938 8.171875 9.9375 8.3125 9.9375 L 8.316406 9.9375 C 8.460938 9.9375 8.582031 9.828125 8.601562 9.683594 C 8.867188 7.664062 10.589844 6.140625 12.605469 6.140625 C 13.425781 6.140625 14.214844 6.386719 14.886719 6.855469 C 14.894531 6.863281 14.902344 6.871094 14.902344 6.882812 L 14.902344 7.753906 C 14.902344 8.101562 15.097656 8.398438 15.414062 8.535156 C 15.730469 8.664062 16.078125 8.597656 16.320312 8.351562 L 19.457031 5.179688 C 19.6875 4.945312 19.816406 4.632812 19.816406 4.300781 Z M 15.375 13.410156 L 13.144531 11.152344 C 12.878906 10.886719 12.519531 10.757812 12.148438 10.804688 C 11.78125 10.847656 11.457031 11.050781 11.261719 11.371094 L 10.699219 12.296875 C 10.535156 12.566406 10.210938 12.671875 9.925781 12.554688 C 8.820312 12.089844 7.824219 11.433594 6.96875 10.601562 C 6.023438 9.679688 5.285156 8.585938 4.78125 7.347656 C 4.664062 7.054688 4.769531 6.726562 5.03125 6.5625 L 5.945312 5.992188 C 6.261719 5.792969 6.46875 5.46875 6.511719 5.09375 C 6.554688 4.722656 6.429688 4.355469 6.164062 4.089844 L 3.929688 1.832031 C 3.535156 1.425781 2.921875 1.355469 2.445312 1.652344 C 2.246094 1.773438 2.0625 1.914062 1.886719 2.058594 C 1.882812 2.0625 1.875 2.070312 1.871094 2.074219 C 0.535156 3.214844 -0.0898438 5.023438 0.296875 6.777344 C 0.792969 9.03125 2.125 11.34375 4.050781 13.292969 C 5.203125 14.460938 6.472656 15.402344 7.824219 16.097656 C 7.96875 16.175781 8.144531 16.117188 8.214844 15.972656 C 8.289062 15.832031 8.230469 15.652344 8.089844 15.578125 C 6.808594 14.921875 5.554688 13.984375 4.457031 12.878906 C 2.613281 11.007812 1.335938 8.796875 0.863281 6.652344 C 0.542969 5.199219 1.011719 3.703125 2.050781 2.695312 L 5.132812 5.816406 L 4.730469 6.0625 C 4.222656 6.378906 4.019531 7.015625 4.246094 7.570312 C 4.78125 8.882812 5.5625 10.042969 6.566406 11.019531 C 7.476562 11.90625 8.53125 12.605469 9.707031 13.09375 C 10.253906 13.324219 10.878906 13.117188 11.191406 12.605469 L 11.441406 12.199219 L 14.519531 15.3125 C 13.527344 16.363281 12.046875 16.839844 10.609375 16.515625 C 10.089844 16.398438 9.558594 16.230469 9.027344 16.011719 C 8.878906 15.953125 8.710938 16.023438 8.652344 16.175781 C 8.589844 16.324219 8.664062 16.496094 8.808594 16.554688 C 9.371094 16.785156 9.933594 16.964844 10.484375 17.085938 C 10.824219 17.167969 11.167969 17.203125 11.511719 17.203125 C 13.132812 17.210938 14.699219 16.328125 15.550781 14.914062 C 15.84375 14.429688 15.773438 13.816406 15.375 13.410156 Z M 5.636719 5.5 L 2.5 2.320312 C 2.578125 2.261719 2.664062 2.207031 2.746094 2.148438 C 2.996094 1.996094 3.316406 2.035156 3.523438 2.246094 L 5.757812 4.503906 C 5.894531 4.640625 5.957031 4.835938 5.9375 5.027344 C 5.914062 5.222656 5.804688 5.390625 5.640625 5.496094 Z M 14.96875 13.824219 C 15.175781 14.03125 15.210938 14.355469 15.058594 14.605469 C 15.058594 14.609375 15.058594 14.609375 15.058594 14.609375 C 15.003906 14.695312 14.949219 14.78125 14.890625 14.863281 L 11.75 11.683594 L 11.753906 11.679688 C 11.855469 11.515625 12.023438 11.402344 12.214844 11.382812 C 12.40625 11.359375 12.597656 11.425781 12.734375 11.566406 Z M 14.96875 13.824219 "/>
</g>
</g>
</svg>
