<?xml version="1.0" encoding="utf-8"?>
<svg version="1.1" xmlns:xlink="http://www.w3.org/1999/xlink" width="20px" height="16px" xmlns="http://www.w3.org/2000/svg">
  <g transform="matrix(1 0 0 1 -1138 -307 )">
    <path d="M 19.5297481742487 3.29480586193628  C 19.7885077766558 3.49227412736019  20.1357862889443 3.15444909088423  19.9451542147072 2.89037679132624  C 19.7310447067372 2.5938032856688  19.4894732421711 2.31043339498927  19.2271588203468 2.04811897316502  C 17.382754438153 0.203714590971148  14.6932796334239 -0.445528252024978  12.2082264771544 0.353837349432888  C 12.0541973237288 0.40340950152447  11.969506680912 0.568415624798576  12.0190397690539 0.72248384217383  C 12.0686119211455 0.876512995599445  12.2334617886211 0.961242702365907  12.3876862617949 0.911670550274326  C 14.4738964922526 0.240551895480496  16.7176516316035 0.684748066822792  18.3776351075528 2.06538523890535  C 16.7743334225294 1.59482090155689  14.9768839078013 2.00444547746889  13.7379707450081 3.24343676816132  C 13.0676724331567 3.9136960160631  12.6212886806346 4.75880550254795  12.4471025291954 5.68743371336046  C 12.4095230096429 5.88806615870511  12.4739003986476 6.09463632439485  12.6192182913038 6.23999328100066  L 13.2377568698838 6.85849279563109  C 13.4118648934238 7.05267968928534  13.3120565020968 7.28050064357857  13.0570079749053 7.29483711309599  L 8.56570849308861 7.29483711309599  C 8.20296065674312 7.29483711309599  7.90783251722232 6.99970897357519  7.90783251722232 6.63692207328006  L 7.90779345327268 2.14566165541299  C 7.90759813352448 1.90616058017778  8.17573308384491 1.79685964908854  8.34413777073758 1.96491276043447  L 8.90826026747086 2.52903525716775  C 9.02783501731509 2.64857094306234  9.18452051931614 2.71189360542676  9.35284707830954 2.71150296593038  C 9.55551084903541 2.71107326248435  9.71368078112273 2.60239735458933  9.8536469126784 2.46247028698331  C 10.3081169027757 2.00807842478529  10.8240735496044 1.62759555530381  11.387180383647 1.33168613679023  C 11.5304278869724 1.25640990583635  11.5855471199126 1.07929395817423  11.5102708889588 0.93604645484891  C 11.4349555940552 0.792759887573952  11.2576443266449 0.737757846482584  11.1146312070174 0.812995013486828  C 10.7933692851883 0.981985659624087  9.33155722575642 2.12366865176637  9.32261158128915 2.1147230072991  L 8.75848908455587 1.55060051056582  C 8.51316748082448 1.30531797078407  8.16182631777351 1.23547162882998  7.84130661098752 1.36817186575283  C 7.5208650321008 1.50091116662532  7.3217951447417 1.79881284657048  7.3217951447417 2.14566165541299  L 7.32183420869134 6.63692207328006  C 7.32183420869134 7.32280690103734  7.87982366533133 7.88079635767733  8.56566942913897 7.88079635767733  L 13.0569689109557 7.88079635767733  C 13.778323804985 7.88837476390725  14.1779480097894 6.95857463460558  13.6520300558029 6.44418054576244  C 13.6348419179618 6.41249968260541  13.0150532929933 5.83763459972147  13.0229442108203 5.79540647016198  C 13.1752545504618 4.98338414902115  13.5657768550005 4.24421609395661  14.1522048669775 3.6577880819796  C 15.5967115967194 2.21324228828804  17.9085552002906 2.05718180948121  19.5297481742487 3.29480586193628  Z M 15.3873288266557 12.187401485602  L 13.1249792472768 9.92513003412236  C 12.8589146862872 9.65910453708243  12.4919870073303 9.53152167756225  12.1182622011364 9.57527330115766  C 11.7446155228417 9.61902492475307  11.4170252411711 9.82774360767294  11.2195569757471 10.1480289307611  L 10.6493014389206 11.0729460663579  C 10.4846468911932 11.3400653539877  10.1561972026306 11.4478818549907  9.86845214959148 11.3291274480889  C 9.66199917575066 11.2439289739268  9.45585871350694 11.1504098784916  9.25589035530615 11.0511093185099  C 9.11096310214636 10.9791925872249  8.93513626482232 11.038335406978  8.86318046958773 11.1832626601378  C 8.79122467435315 11.3281899132976  8.85040655805586 11.503977686672  8.99533381121565 11.5759725458562  C 9.20741199380445 11.6812498901326  9.42597479203329 11.7804723222151  9.6450063576578 11.8708272377295  C 10.1995972506792 12.0995857268141  10.8318472755825 11.8934062006207  11.1480699479082 11.3804965418639  L 11.3999152312293 10.972043884441  L 14.5192106738336 14.0913393270453  C 13.5129233311392 15.1431361710688  12.0153286938382 15.6204585717048  10.559180907104 15.2960324699549  C 8.41132776411624 14.8175381508298  6.1985503368289 13.5241698422402  4.32855906762165 11.6541395090833  C 2.45833341471656 9.78395292012789  1.1648869782277 7.57109736494127  0.68639265910258 5.42312703010463  C 0.362005621302349 3.96690111547108  0.83932802193831 2.469423670019  1.89104673806254 1.46317539127428  L 5.01057656436469 4.58274428152607  L 4.60251454643824 4.8343551811493  C 4.08909705633607 5.15092942902178  3.88354255333694 5.78466388401132  4.11370734460849 6.34132516636359  C 4.65708688408358 7.6555926880099  5.4481318642684 8.81797957346073  6.46488834546594 9.79614087241518  C 6.93963252542574 10.2529156355412  7.46199565999519 10.6652746879279  8.0174850238583 11.0217722923312  C 8.15362288834937 11.1091583476731  8.33495774257247 11.0696646945883  8.42226567001509 10.9334487021979  C 8.50965172535699 10.7972717737572  8.47015807227221 10.616054111383  8.33394207988187 10.5286289920915  C 7.81060234657145 10.1927180891478  7.31843564507276 9.80422710999041  6.871153421709 9.37385957682023  C 5.91303192891923 8.45210662114414  5.16745738611393 7.35644096167631  4.65513368660165 6.11741060703424  C 4.5354417449085 5.82782954836214  4.64259415876761 5.49801262156213  4.90998689404489 5.33312369013693  L 5.83447432619569 4.76310253700821  C 6.15475964928386 4.56563427158429  6.36351739615337 4.23808305386332  6.40722995579914 3.86435824766934  C 6.45098157939454 3.49063344147536  6.323437783824 3.12370576251853  6.05741228678408 2.85764120152896  L 3.79482832370732 0.595057238452204  C 3.39231338662958 0.1925813653241  2.77291540115746 0.120117738744207  2.28844429773761 0.418839761631775  C 2.08867125928501 0.542008394842773  1.90089085337151 0.678693154628781  1.72463431260144 0.826159564515085  C 1.71869659225635 0.830690982673181  1.71291512770981 0.835495848478748  1.70721179106255 0.840535097982147  C 0.356263220705451 1.98167119482949  -0.277158722686979 3.79248058033403  0.114457372441551 5.55051456987661  C 0.616819764795954 7.80575451042128  1.96624484111715 10.1205279102154  3.91416868985372 12.0684126950023  C 5.86193628279174 14.0161802879404  8.17659249073695 15.3655272363623  10.4317543033823 15.8679286926663  C 10.7779780890306 15.9450799932029  11.1261550721609 15.9824641930072  11.4710116195718 15.9824641930072  C 13.1142757250757 15.9900035352874  14.7002330164596 15.1068848258041  15.5635072395265 13.6937464476221  C 15.8621901984644 13.2093144081519  15.7897656358341 12.5898773587301  15.3873288266557 12.187401485602  Z M 2.3433682109297 1.08679423650487  C 2.4252071854229 1.02784673649999  2.50923374109586 0.971164945574152  2.59607290114282 0.917608270619417  C 2.8483478879099 0.761977495258613  3.17101611192603 0.799791398508928  3.38051607383868 1.00936948832086  L 5.64310003691543 3.27195345139761  C 5.78169893023374 3.41051328076628  5.84806858066998 3.60161412239907  5.82529429803059 3.79623071949936  C 5.80255907934083 3.99084731659964  5.69384410749618 4.16143958467209  5.52700197858905 4.26425590012129  L 5.52317371152445 4.26659973709962  L 2.3433682109297 1.08679423650487  Z M 14.9728603209885 12.6017137354706  C 15.1822040271026 12.8110183776351  15.2201351222018 13.1329443866081  15.0654028176827 13.3850631175766  C 15.0651293700352 13.3854928210227  15.0648949863374 13.3859225244687  15.0646215386899 13.3863522279147  C 15.0111039276848 13.473152324012  14.9544612007086 13.5571398157353  14.8955137007037 13.6389787902285  L 11.7159035198572 10.459368609382  L 11.7182473568355 10.4555403423174  C 11.8211027362344 10.2887372773599  11.9916950043068 10.1800223055152  12.1862725374574 10.1572480228758  C 12.3810063264066 10.1345128041861  12.5720290401402 10.2008824546223  12.7105888695088 10.339442283991  L 14.9728603209885 12.6017137354706  Z " fill-rule="nonzero" fill="#218a0e" stroke="none" transform="matrix(1 0 0 1 1138 307 )" />
  </g>
</svg>