<svg id="Layer_1" data-name="Layer 1" xmlns="http://www.w3.org/2000/svg" viewBox="0 0 1145.77 943">
  <defs>
    <style>
      .cls-1 {
        fill: none;
        stroke: #263c92;
        stroke-miterlimit: 10;
        stroke-width: 31px;
        animation: stroke 1s linear;
      }
      <!-- .group-1 {
        animation: zoomOut 1s linear;
      } -->
      @keyframes zoomOut {
        0% {
          transform: scale(1.2);
        }
        100% {
          transform: scale(1);
        }
      }
      @keyframes stroke {
        from {
          stroke-dashoffset: 2854;
        }
        to {
          stroke-dashoffset: 0;
        }
      }

      @keyframes fadeIn {
          0% {
             opacity:1;
         }
         18.75% {
             opacity:1;
         }
         81.25% {
             opacity:1;
         }
         100% {
             opacity:0;
         }
      }

      .cls-2 {
        fill: #ea2729;
        fill-rule: evenodd;
      }

      .cls-3 {
        fill: #fff;
      }
    </style>
  </defs>
  <title>loadscreen</title>
  <g class="group-1">
    <path class="cls-1" d="M764.4,2058.92H249.77v-912H764.4Z" transform="translate(-234.27 -1131.42)" stroke-dasharray="2854"/>
    <g>
      <g>
        <path class="cls-2" d="M429.46,1253.8h29.91a32.91,32.91,0,0,0-29.91,28.72Z" transform="translate(-234.27 -1131.42)"/>
        <path class="cls-2" d="M494.86,1253.8v28.74A32.9,32.9,0,0,0,465,1253.8h29.9" transform="translate(-234.27 -1131.42)"/>
        <path class="cls-2" d="M494.86,1290.51v28.72H465a32.9,32.9,0,0,0,29.9-28.72Z" transform="translate(-234.27 -1131.42)"/>
        <path class="cls-2" d="M429.46,1319.23v-28.72a32.91,32.91,0,0,0,29.91,28.72H429.46" transform="translate(-234.27 -1131.42)"/>
        <path class="cls-2" d="M462.17,1261a25.52,25.52,0,1,1-25.6,25.51,25.56,25.56,0,0,1,25.6-25.51Z" transform="translate(-234.27 -1131.42)"/>
      </g>
      <g>
        <path class="cls-3" d="M517.39,1309.73l4-4.07a17,17,0,0,0,12.28,5.31,11,11,0,0,0,6.7-1.89,6.09,6.09,0,0,0,2.56-5.21,5.61,5.61,0,0,0-1.36-3.8,10,10,0,0,0-3.55-2.56,42.89,42.89,0,0,0-4.81-1.82c-1.75-.56-3.5-1.18-5.25-1.88a31.29,31.29,0,0,1-4.81-2.41,10.42,10.42,0,0,1-3.55-3.7,10.88,10.88,0,0,1-1.36-5.56,10.61,10.61,0,0,1,4-8.46q3.94-3.33,10.74-3.33a20.18,20.18,0,0,1,8.15,1.79,17,17,0,0,1,6.85,5.49l-4.51,3.52a10.84,10.84,0,0,0-4.41-3.58,14.42,14.42,0,0,0-5.77-1.36H533a10.63,10.63,0,0,0-6.11,1.64,4.92,4.92,0,0,0-2.41,4.23,4.8,4.8,0,0,0,1.36,3.42,9.88,9.88,0,0,0,3.55,2.35c1.46.6,3.06,1.16,4.81,1.7s3.51,1.15,5.28,1.85a27.22,27.22,0,0,1,4.85,2.47,10.69,10.69,0,0,1,3.55,3.89,13,13,0,0,1-3,15.46,16.52,16.52,0,0,1-11,3.61h-.25A21.34,21.34,0,0,1,517.39,1309.73Z" transform="translate(-234.27 -1131.42)"/>
        <path class="cls-3" d="M559.49,1286.83a17.48,17.48,0,1,1,0,24.66,17,17,0,0,1-5.09-12.37A16.78,16.78,0,0,1,559.49,1286.83Zm1,12.29a11.29,11.29,0,0,0,19.29,8,11,11,0,0,0,3.3-8,11.3,11.3,0,0,0-22.59,0Z" transform="translate(-234.27 -1131.42)"/>
        <path class="cls-3" d="M595.29,1282.2h6.05v17.22q0,5.57,2.6,8.4a9.07,9.07,0,0,0,13.18,0q2.63-2.83,2.62-8.4V1282.2h6v34h-5.56l-.31-6.05a12.11,12.11,0,0,1-4.26,4.73,11.47,11.47,0,0,1-6.42,1.82,12.7,12.7,0,0,1-10.06-4.39q-3.82-4.38-3.83-12.84Z" transform="translate(-234.27 -1131.42)"/>
        <path class="cls-3" d="M631.53,1282.2h4.75l.74-11.11h5.06v11.11h8.15v5.43h-8.15v15.81a8.13,8.13,0,0,0,1.67,5.49,5.72,5.72,0,0,0,4.57,1.91,7.06,7.06,0,0,0,2.59-.43l1.55,5.37a12.13,12.13,0,0,1-4.94.93,11,11,0,0,1-8.24-3.24q-3.18-3.24-3.18-10v-15.87h-4.57Z" transform="translate(-234.27 -1131.42)"/>
        <path class="cls-3" d="M658.88,1268h6v20.07a11.91,11.91,0,0,1,4.23-4.6,11.42,11.42,0,0,1,6.33-1.76,12.74,12.74,0,0,1,10.06,4.35q3.82,4.35,3.83,12.81v17.28h-6v-17.28c0-3.66-.87-6.45-2.59-8.37a9,9,0,0,0-13.18,0c-1.75,1.9-2.63,4.69-2.63,8.4v17.28h-6Z" transform="translate(-234.27 -1131.42)"/>
        <path class="cls-3" d="M715.05,1282.2l1.48-11.11h8.15v11.11h7.59V1291h-7.59v10.06q0,6.11,5.31,6.11a7.07,7.07,0,0,0,2.28-.37l2.47,8.89a16.56,16.56,0,0,1-6.3,1.11,13.82,13.82,0,0,1-9.9-3.64q-3.87-3.64-3.86-12V1291h-4.45v-8.83Z" transform="translate(-234.27 -1131.42)"/>
        <path class="cls-3" d="M741,1286.83a17.37,17.37,0,0,1,24.63,0,16.92,16.92,0,0,1,5.07,12.35,36.19,36.19,0,0,1-.25,3.76H746.59a6.53,6.53,0,0,0,2.75,3.31,8.81,8.81,0,0,0,4.78,1.26A9.34,9.34,0,0,0,761,1305l8,5.06a16.88,16.88,0,0,1-6.51,4.85,20.54,20.54,0,0,1-8.37,1.82,17.87,17.87,0,0,1-13.11-5.09,17.59,17.59,0,0,1,0-24.85Zm5.68,8.27h13.64a5.22,5.22,0,0,0-2.37-2.93,8.4,8.4,0,0,0-4.6-1.2,7.64,7.64,0,0,0-4.41,1.2A5.3,5.3,0,0,0,746.65,1295.1Z" transform="translate(-234.27 -1131.42)"/>
        <path class="cls-3" d="M785.48,1316.15h-10V1268h10Z" transform="translate(-234.27 -1131.42)"/>
        <path class="cls-3" d="M795.54,1286.83a17.37,17.37,0,0,1,24.63,0,16.92,16.92,0,0,1,5.06,12.35,35.84,35.84,0,0,1-.24,3.76H801.16a6.48,6.48,0,0,0,2.75,3.31,8.78,8.78,0,0,0,4.78,1.26,9.32,9.32,0,0,0,6.91-2.47l8,5.06a16.84,16.84,0,0,1-6.52,4.85,20.46,20.46,0,0,1-8.36,1.82,17.91,17.91,0,0,1-13.12-5.09,17.6,17.6,0,0,1,0-24.85Zm5.68,8.27h13.64a5.22,5.22,0,0,0-2.37-2.93,8.4,8.4,0,0,0-4.6-1.2,7.69,7.69,0,0,0-4.42,1.2A5.33,5.33,0,0,0,801.22,1295.1Z" transform="translate(-234.27 -1131.42)"/>
        <path class="cls-3" d="M833.81,1286.83a16.85,16.85,0,0,1,12.35-5.12,17,17,0,0,1,8.09,2,18.16,18.16,0,0,1,6.23,5.41l-8.27,5.49a7.41,7.41,0,0,0-6.05-2.72,7.1,7.1,0,0,0-5.22,2.13,7,7,0,0,0-2.13,5.16,7.18,7.18,0,0,0,2.13,5.24,7.59,7.59,0,0,0,11.45-1l8.28,5.55a17.64,17.64,0,0,1-6.24,5.68,17.41,17.41,0,0,1-20.65-3.05,17.09,17.09,0,0,1-5.09-12.44A16.85,16.85,0,0,1,833.81,1286.83Z" transform="translate(-234.27 -1131.42)"/>
        <path class="cls-3" d="M868,1286.83a17.53,17.53,0,1,1,0,24.79,17.05,17.05,0,0,1-5.09-12.44A16.82,16.82,0,0,1,868,1286.83Zm5,12.35a7.12,7.12,0,0,0,2.16,5.24,7,7,0,0,0,5.19,2.16,7,7,0,0,0,5.21-2.16,7.18,7.18,0,0,0,2.13-5.24,7.27,7.27,0,0,0-7.34-7.29,7.1,7.1,0,0,0-5.22,2.13A7,7,0,0,0,873,1299.18Z" transform="translate(-234.27 -1131.42)"/>
        <path class="cls-3" d="M902.83,1316.15v-34h9.07l.62,4.32a9.64,9.64,0,0,1,3.64-3.64,9.77,9.77,0,0,1,4.88-1.3q6.54,0,9.5,5.37a10.78,10.78,0,0,1,3.71-3.88,9.38,9.38,0,0,1,5.12-1.49,11.84,11.84,0,0,1,9.57,4.11q3.45,4.11,3.45,12.81v17.65h-10V1298.5q0-3.64-1.42-5.37a4.31,4.31,0,0,0-3.45-1.73,4.42,4.42,0,0,0-3.49,1.73q-1.46,1.72-1.45,5.37v17.65h-10V1298.5q0-3.64-1.39-5.37a4.31,4.31,0,0,0-3.49-1.73,4.22,4.22,0,0,0-3.49,1.85,9.28,9.28,0,0,0-1.38,5.56v17.34Z" transform="translate(-234.27 -1131.42)"/>
      </g>
    </g>
    <g>
      <path class="cls-3 worldfone-text" d="M431.68,1392.35h28.86L486.45,1480,511.79,1392H536L561.56,1480l25.71-87.69h29.05L576.73,1527.4H548.42L524,1439.34l-24.6,88.06H471.27Z" transform="translate(-234.27 -1131.42)"/>
      <path class="cls-3 worldfone-text" d="M629.83,1439.52a49.83,49.83,0,0,1,36.81-15.35,50.6,50.6,0,0,1,37.1,15.45q15.45,15.45,15.45,36.9a50.43,50.43,0,0,1-15.36,37q-15.54,15.54-37.19,15.54a50,50,0,0,1-36.91-15.45,52.49,52.49,0,0,1,.1-74.1Zm10.91,37a26,26,0,1,0,25.9-25.9,25.91,25.91,0,0,0-25.9,25.9Z" transform="translate(-234.27 -1131.42)"/>
      <path class="cls-3 worldfone-text" d="M735.84,1425.65h23.68l1.85,14.61q9.06-15.35,30.15-15.35a50.4,50.4,0,0,1,9.25.74l-5.36,25a23.26,23.26,0,0,0-3.15-.37q-12.94,0-21.64,7.87t-8.7,26.55v42.73H735.84Z" transform="translate(-234.27 -1131.42)"/>
      <path class="cls-3 worldfone-text" d="M839.26,1527.4H813.17V1383.1h26.09Z" transform="translate(-234.27 -1131.42)"/>
      <path class="cls-3 worldfone-text" d="M870,1439.34Q884,1424,904,1424a36.49,36.49,0,0,1,18.5,4.9,35.68,35.68,0,0,1,13.14,12.68V1383.1h26.08v144.3H938.05l-1.66-17a37.52,37.52,0,0,1-32.38,18.5q-20,0-34-15.45t-14.06-37.09Q855.91,1454.7,870,1439.34Zm20,55.87a25.37,25.37,0,0,0,18.87,8,26.85,26.85,0,1,0-18.87-8Z" transform="translate(-234.27 -1131.42)"/>
      <path class="cls-3 worldfone-text" d="M975.79,1425.65h13v-2.59q0-22.2,11.2-32.66t28.39-10.45a51.37,51.37,0,0,1,17,2.78l-6.66,23.12q-6.48-.91-7.78-.92-16.28,0-16.28,18.13v2.59h23.87v23.12h-23.87v78.63l-25.9-.18v-78.45h-13Z" transform="translate(-234.27 -1131.42)"/>
      <path class="cls-3 worldfone-text" d="M1061.08,1439.52a49.85,49.85,0,0,1,36.82-15.35,50.58,50.58,0,0,1,37.09,15.45q15.45,15.45,15.45,36.9a50.43,50.43,0,0,1-15.36,37q-15.54,15.54-37.18,15.54a50,50,0,0,1-36.91-15.45,52.47,52.47,0,0,1,.09-74.1Zm10.92,37a25.9,25.9,0,1,0,7.58-18.31A25.18,25.18,0,0,0,1072,1476.52Z" transform="translate(-234.27 -1131.42)"/>
      <path class="cls-3 worldfone-text" d="M1167.09,1527.4V1425.65h23.68l1.67,14.8a35.2,35.2,0,0,1,11.74-11.94,30.8,30.8,0,0,1,16.56-4.53q18.51,0,29.33,12.77t10.82,38.67v52H1235v-52q0-12.78-6-19.34a20.27,20.27,0,0,0-29.88,0q-5.92,6.57-5.92,19.34v52Z" transform="translate(-234.27 -1131.42)"/>
      <path class="cls-3 worldfone-text" d="M1291.23,1439.52a49.85,49.85,0,0,1,36.82-15.35q21.83,0,36.91,15.35a50.91,50.91,0,0,1,15.08,37,90.61,90.61,0,0,1-.75,10.36H1304a22.31,22.31,0,0,0,9.34,13,29.19,29.19,0,0,0,17.11,5.09q15,0,23.5-9.44l20.9,13.14a50.58,50.58,0,0,1-19.42,14.8,59.8,59.8,0,0,1-25,5.55q-23.49,0-38.94-15.27t-15.45-37.28A50.76,50.76,0,0,1,1291.23,1439.52Zm12.77,26.64h49q-1.11-7.4-8-12.58t-16.84-5.18q-9.81,0-16.37,5.18A20.17,20.17,0,0,0,1304,1466.16Z" transform="translate(-234.27 -1131.42)"/>
    </g>
    <g>
      <path class="cls-3" d="M500.72,1556.55q27.45,0,43.29,15.32t15.85,38.29q0,23.17-15.85,38.6t-43.29,15.43H486.9v47.65H440.1V1556.55Zm-1.06,61.9q12.12,0,12.13-8.29,0-7.87-12.13-7.87H486.9v16.16Z" transform="translate(-234.27 -1131.42)"/>
      <path class="cls-3" d="M572.62,1556.55h60.2q22.77,0,38.18,11.06t15.43,30.85q0,16.17-11.7,29.14,19.14,13,19.14,36,0,21.48-15.63,34.89t-40.1,13.4H572.62Zm46.8,56,15.53-.22q6-1.27,6-6.59a6,6,0,0,0-2.66-5.11,10.88,10.88,0,0,0-6.49-1.91H619.42Zm0,39.77v14.9h17q9.13,0,9.14-7.45t-9.14-7.45Z" transform="translate(-234.27 -1131.42)"/>
      <path class="cls-3" d="M737.91,1632.28l-44-75.73h54.46l20.42,35.1,20.42-35.1h54.46l-44,75.73,46.16,79.56H791.3l-22.55-38.93-22.55,38.93H691.75Z" transform="translate(-234.27 -1131.42)"/>
    </g>
    <g>
      <path class="cls-3" d="M480.81,1760.36v42.94a1.82,1.82,0,0,1-1.87,2h-1.4a1.87,1.87,0,0,1-1.87-2v-6.16a22.22,22.22,0,0,1-18.48,9.33c-13.91,0-23.53-10.82-23.53-24.45s9.62-24.46,23.53-24.46a22.56,22.56,0,0,1,18.48,9v-6.16a1.79,1.79,0,0,1,1.87-2h1.4A1.75,1.75,0,0,1,480.81,1760.36ZM476.23,1782c0-12.51-8.31-19.79-18.58-19.79-11.38,0-18.76,8.86-18.76,19.79s7.38,19.79,18.76,19.79C468,1801.81,476.23,1794.53,476.23,1782Z" transform="translate(-234.27 -1131.42)"/>
      <path class="cls-3" d="M496.3,1799.38v-58.16c0-1,.56-1.68,1.87-2l1.12-.28c1.49-.47,2.14.37,2.14,1.77v58.81c0,1.78.75,2.52,2.06,2.52a3.87,3.87,0,0,0,2.14-.65,1.64,1.64,0,0,1,2.53.84l.18.28a1.69,1.69,0,0,1-.46,2.52,8.4,8.4,0,0,1-5.05,1.49C499.1,1806.47,496.3,1804.05,496.3,1799.38Z" transform="translate(-234.27 -1131.42)"/>
      <path class="cls-3" d="M566.69,1782c0,13.63-9.71,24.45-23.53,24.45-8.4,0-14.75-3.82-18.58-9.61v23.9a1.81,1.81,0,0,1-1.86,2h-1.31a1.82,1.82,0,0,1-1.87-2v-56.2c0-1.77-.74-2.52-2-2.52a4.25,4.25,0,0,0-2.24.65,1.65,1.65,0,0,1-2.52-.84l-.1-.28a1.76,1.76,0,0,1,.38-2.52,8.76,8.76,0,0,1,5-1.49c3.83,0,6.35,2.42,6.35,7.19v2.61a21.71,21.71,0,0,1,18.76-9.8C557,1757.56,566.69,1768.29,566.69,1782Zm-5.23,0c0-10.93-7.47-19.79-18.77-19.79-10.26,0-18.57,7.28-18.57,19.79s8.21,19.79,18.57,19.79C554.08,1801.81,561.46,1792.94,561.46,1782Z" transform="translate(-234.27 -1131.42)"/>
      <path class="cls-3" d="M618.77,1776.6v26.7a1.81,1.81,0,0,1-1.86,2H615.6a1.82,1.82,0,0,1-1.87-2v-26.23c0-9.06-5.69-14.94-14.56-14.94-9.15,0-15.5,6.16-15.5,15.12v26a1.81,1.81,0,0,1-1.86,2H580.5a1.82,1.82,0,0,1-1.87-2v-62.08c0-1,.47-1.68,1.78-2l1.12-.28c1.58-.47,2.14.37,2.14,1.77v24.93c3.36-4.95,9-8,16.25-8C611.4,1757.56,618.77,1765.31,618.77,1776.6Z" transform="translate(-234.27 -1131.42)"/>
      <path class="cls-3" d="M677.21,1760.36v42.94a1.82,1.82,0,0,1-1.87,2h-1.4a1.86,1.86,0,0,1-1.86-2v-6.16a22.26,22.26,0,0,1-18.49,9.33c-13.91,0-23.52-10.82-23.52-24.45s9.61-24.46,23.52-24.46a22.58,22.58,0,0,1,18.49,9v-6.16a1.78,1.78,0,0,1,1.86-2h1.4A1.74,1.74,0,0,1,677.21,1760.36ZM672.63,1782c0-12.51-8.3-19.79-18.57-19.79-11.39,0-18.77,8.86-18.77,19.79s7.38,19.79,18.77,19.79C664.42,1801.81,672.63,1794.53,672.63,1782Z" transform="translate(-234.27 -1131.42)"/>
      <path class="cls-3" d="M716.69,1788.46v-23.9c0-1.77-.74-2.52-2.05-2.52a4.25,4.25,0,0,0-2.24.65,1.65,1.65,0,0,1-2.52-.84l-.09-.28a1.75,1.75,0,0,1,.37-2.52,9,9,0,0,1,5.13-1.49c3.83,0,6.45,2.61,6.45,7.28V1788c0,9.06,5,13.91,13.07,13.91,9.05,0,15.68-7.65,15.68-20,0-9.15-2.52-17.83-6.44-22.59a2,2,0,0,1,.37-3l.75-.56a2.15,2.15,0,0,1,3.17.38c4.58,5.69,7.47,15.49,7.38,25.76-.1,14.85-8.87,24.55-20.91,24.55C724.35,1806.47,716.69,1799.47,716.69,1788.46Z" transform="translate(-234.27 -1131.42)"/>
      <path class="cls-3" d="M788.48,1801.81a23,23,0,0,0,16.06-6.82,2,2,0,0,1,3.08,0l.56.47a2,2,0,0,1-.09,2.89,27.56,27.56,0,0,1-19.42,8.12c-12.7,0-24.27-9-24.27-24.36,0-14,9.7-24.55,23.24-24.55,7.19,0,13,2.89,16.8,7.65a23.84,23.84,0,0,1,5.89,15.87,2.35,2.35,0,0,1-2.52,2.52H769.72C770.37,1795.09,778.87,1801.81,788.48,1801.81Zm-18.76-22.87H805.1a19.89,19.89,0,0,0-3.92-10.18c-2.9-4.11-7.56-6.53-13.54-6.53C777.75,1762.23,770.74,1769,769.72,1778.94Z" transform="translate(-234.27 -1131.42)"/>
      <path class="cls-3" d="M846.82,1760.83l-.18.74c-.47,1.4-1.5,1.5-2.71,1.12a11.1,11.1,0,0,0-3.36-.56c-7.1,0-12.32,6.82-12.32,16.25v24.92a1.82,1.82,0,0,1-1.87,2h-1.31a1.81,1.81,0,0,1-1.86-2v-38.74c0-1.77-.75-2.52-2.06-2.52a4.25,4.25,0,0,0-2.24.65,1.65,1.65,0,0,1-2.52-.84l-.09-.28a1.75,1.75,0,0,1,.37-2.52,8.78,8.78,0,0,1,5-1.49c3.83,0,6.35,2.42,6.35,7.19v1.49c2.52-5.32,7-8.68,12.88-8.68a14.41,14.41,0,0,1,4.67.65C846.64,1758.49,847.38,1759.24,846.82,1760.83Z" transform="translate(-234.27 -1131.42)"/>
      <path class="cls-3" d="M849.9,1798.54c-.65-1-1-2,.19-3l.47-.28c1-.84,1.86-1,3,.19a14.87,14.87,0,0,0,12.7,6.44c6.63,0,11.11-3.27,11.11-8.21,0-6.54-6.54-8.59-13.16-11.39-6-2.43-12.05-5.42-12.05-12.42,0-7.47,6.16-12.32,14.85-12.32A17.28,17.28,0,0,1,880.9,1764c.74.84,1.21,1.87.09,3l-.37.37a2,2,0,0,1-3.08,0c-3.27-3.83-6.35-5.23-10.74-5.23-5.6,0-9.43,3-9.43,7.28s3.92,6.54,9.06,8.59c8.12,3.36,16.15,6,16.15,15.59,0,7.75-6.35,12.88-16,12.88C860.17,1806.47,853.64,1803.86,849.9,1798.54Z" transform="translate(-234.27 -1131.42)"/>
      <path class="cls-3" d="M892.19,1744.12a4.74,4.74,0,0,1,4.67-4.67,4.67,4.67,0,0,1,0,9.33A4.74,4.74,0,0,1,892.19,1744.12Zm2,55.17v-38.93a1.79,1.79,0,0,1,1.87-2h1.4a1.75,1.75,0,0,1,1.87,2v39.11c0,1.78.75,2.52,2,2.52a3.94,3.94,0,0,0,2.15-.65,1.63,1.63,0,0,1,2.52.84l.19.28a1.7,1.7,0,0,1-.47,2.52,8.37,8.37,0,0,1-5,1.49C897,1806.47,894.24,1804,894.24,1799.29Z" transform="translate(-234.27 -1131.42)"/>
      <path class="cls-3" d="M912.54,1782c0-13.82,10.55-24.46,24.74-24.46S962,1768.2,962,1782s-10.55,24.45-24.74,24.45S912.54,1795.83,912.54,1782Zm44.25,0c0-11.3-8.22-19.79-19.51-19.79s-19.51,8.49-19.51,19.79,8.12,19.79,19.51,19.79S956.79,1793.31,956.79,1782Z" transform="translate(-234.27 -1131.42)"/>
      <path class="cls-3" d="M1015.32,1776.6v26.7a1.82,1.82,0,0,1-1.87,2h-1.31a1.86,1.86,0,0,1-1.86-2v-26.23c0-9.06-5.7-14.94-14.57-14.94-9.14,0-15.49,6.16-15.49,15.12v26a1.82,1.82,0,0,1-1.87,2H977a1.81,1.81,0,0,1-1.86-2v-38.74c0-1.77-.75-2.52-2.06-2.52a4.28,4.28,0,0,0-2.24.65,1.65,1.65,0,0,1-2.52-.84l-.09-.28a1.75,1.75,0,0,1,.37-2.52,8.78,8.78,0,0,1,5-1.49c3.83,0,6.35,2.42,6.35,7.19v1.12c3.27-5,9.06-8.31,16.43-8.31C1008,1757.56,1015.32,1765.31,1015.32,1776.6Z" transform="translate(-234.27 -1131.42)"/>
    </g>
  </g>
  
</svg>
