<svg xmlns="http://www.w3.org/2000/svg" viewBox="0 0 144.54 31.62"><defs><style>.cls-1{fill:#e92628;fill-rule:evenodd;}.cls-2{fill:#211e1f;}.cls-3{fill:#343433;}.cls-4{fill:#9e1d20;}</style></defs><title>logo</title><g id="Layer_2" data-name="Layer 2"><g id="Layer_1-2" data-name="Layer 1"><path class="cls-1" d="M0,0H13.69A15.07,15.07,0,0,0,0,13.15Z"/><path class="cls-1" d="M29.94,0V13.16A15.06,15.06,0,0,0,16.25,0H29.94"/><path class="cls-1" d="M29.94,16.81V30H16.25A15.07,15.07,0,0,0,29.94,16.81Z"/><path class="cls-1" d="M0,30V16.81A15.08,15.08,0,0,0,13.69,30H0"/><path class="cls-1" d="M15,3.3A11.69,11.69,0,1,1,3.26,15,11.71,11.71,0,0,1,15,3.3Z"/><path class="cls-2" d="M36.68,18.31l2.4-.24A3,3,0,0,0,40,19.88a3.16,3.16,0,0,0,3.59.06,1.49,1.49,0,0,0,.6-1.19A1.11,1.11,0,0,0,43.9,18a1.85,1.85,0,0,0-.89-.53c-.28-.11-.95-.29-2-.56a6.52,6.52,0,0,1-2.79-1.23,3.33,3.33,0,0,1-.6-4.3,3.45,3.45,0,0,1,1.53-1.27,6.18,6.18,0,0,1,2.41-.43,5.12,5.12,0,0,1,3.47,1,3.69,3.69,0,0,1,1.22,2.75l-2.47.11a2.21,2.21,0,0,0-.68-1.39,2.54,2.54,0,0,0-1.57-.42,2.76,2.76,0,0,0-1.69.46.91.91,0,0,0-.38.76,1,1,0,0,0,.36.77,6.39,6.39,0,0,0,2.27.83,12,12,0,0,1,2.67.9,3.44,3.44,0,0,1,1.35,1.27,3.81,3.81,0,0,1,.49,2,3.65,3.65,0,0,1-.59,2,3.61,3.61,0,0,1-1.64,1.39,7,7,0,0,1-2.67.45,5.26,5.26,0,0,1-3.57-1.09,4.8,4.8,0,0,1-1.48-3.19Zm11.47-.59a5.05,5.05,0,0,1,.57-2.31,4.05,4.05,0,0,1,1.63-1.7,4.82,4.82,0,0,1,2.37-.59A4.39,4.39,0,0,1,56,14.46a4.62,4.62,0,0,1,1.29,3.36A4.73,4.73,0,0,1,56,21.23a4.39,4.39,0,0,1-3.27,1.34A5,5,0,0,1,50.41,22a3.83,3.83,0,0,1-1.69-1.64,5.67,5.67,0,0,1-.57-2.65Zm2.4.13a3,3,0,0,0,.63,2.06,2,2,0,0,0,1.54.71,2,2,0,0,0,1.55-.71,3.09,3.09,0,0,0,.61-2.08,3,3,0,0,0-.61-2,2,2,0,0,0-1.55-.71,2,2,0,0,0-1.54.71,3,3,0,0,0-.63,2.06ZM65,22.37V21a3.57,3.57,0,0,1-1.27,1.14,3.54,3.54,0,0,1-1.68.41,3.13,3.13,0,0,1-1.59-.4,2.31,2.31,0,0,1-1-1.11,5.21,5.21,0,0,1-.32-2V13.33h2.35v4.15a11.36,11.36,0,0,0,.13,2.34,1.39,1.39,0,0,0,.46.69,1.53,1.53,0,0,0,.87.24A1.82,1.82,0,0,0,64,20.42a1.79,1.79,0,0,0,.66-.84,10.32,10.32,0,0,0,.17-2.44V13.33h2.35v9Zm8.67-9v1.91H72v3.64a9.84,9.84,0,0,0,0,1.29.66.66,0,0,0,.21.31.65.65,0,0,0,.4.11,3.26,3.26,0,0,0,.94-.22l.2,1.85a4.52,4.52,0,0,1-1.85.35,3.06,3.06,0,0,1-1.15-.21,1.67,1.67,0,0,1-.74-.56,2.31,2.31,0,0,1-.33-.93,11.74,11.74,0,0,1-.08-1.69V15.24H68.6V13.33h1.08v-1.8L72,10.13v3.2Zm4-3.44v4.59a3.47,3.47,0,0,1,2.72-1.36,3.32,3.32,0,0,1,1.46.31,2.53,2.53,0,0,1,1,.78,2.93,2.93,0,0,1,.45,1.06,8.9,8.9,0,0,1,.12,1.8v5.3H81V17.59a6.51,6.51,0,0,0-.14-1.8,1.14,1.14,0,0,0-.47-.61,1.49,1.49,0,0,0-.85-.22,1.85,1.85,0,0,0-1,.29,1.61,1.61,0,0,0-.67.87,5.31,5.31,0,0,0-.22,1.72v4.53H75.26V9.89Z"/><path class="cls-3" d="M93.38,21.08l.21,1.28a5.63,5.63,0,0,1-1.07.13,2.35,2.35,0,0,1-1.2-.26,1.28,1.28,0,0,1-.59-.65,5.07,5.07,0,0,1-.17-1.7V15h-1V13.86h1V11.75l1.4-.86v3h1.42V15H92v5a2.93,2.93,0,0,0,.07.79.7.7,0,0,0,.25.29.9.9,0,0,0,.48.1,4.22,4.22,0,0,0,.62-.06Zm7.1-1.45,1.45.18a3.63,3.63,0,0,1-1.27,2,3.89,3.89,0,0,1-2.4.71,3.77,3.77,0,0,1-2.89-1.14,4.55,4.55,0,0,1-1.08-3.23,4.8,4.8,0,0,1,1.09-3.34,3.67,3.67,0,0,1,2.81-1.19,3.57,3.57,0,0,1,2.74,1.17,4.71,4.71,0,0,1,1,3.27v.39H95.76a3.32,3.32,0,0,0,.77,2.14,2.29,2.29,0,0,0,1.74.75A2.14,2.14,0,0,0,99.61,21a2.86,2.86,0,0,0,.87-1.33ZM95.84,17.3h4.65a2.89,2.89,0,0,0-.53-1.61,2.2,2.2,0,0,0-1.76-.84,2.27,2.27,0,0,0-1.63.66,2.68,2.68,0,0,0-.73,1.79Zm7.84,5.07V10.62h1.41V22.37ZM113,19.63l1.46.18a3.69,3.69,0,0,1-1.28,2,3.86,3.86,0,0,1-2.39.71,3.8,3.8,0,0,1-2.9-1.14,4.59,4.59,0,0,1-1.07-3.23,4.79,4.79,0,0,1,1.08-3.34,3.67,3.67,0,0,1,2.82-1.19,3.56,3.56,0,0,1,2.73,1.17,4.71,4.71,0,0,1,1.06,3.27c0,.09,0,.21,0,.39h-6.22a3.27,3.27,0,0,0,.78,2.14,2.28,2.28,0,0,0,1.74.75,2.13,2.13,0,0,0,1.33-.42,2.86,2.86,0,0,0,.87-1.33Zm-4.64-2.33H113a2.81,2.81,0,0,0-.54-1.61,2.16,2.16,0,0,0-1.75-.84,2.29,2.29,0,0,0-1.64.66,2.73,2.73,0,0,0-.73,1.79Zm13.32,1.95,1.39.19a3.7,3.7,0,0,1-1.17,2.3,3.36,3.36,0,0,1-2.3.82,3.57,3.57,0,0,1-2.75-1.13,4.7,4.7,0,0,1-1-3.28,6,6,0,0,1,.44-2.41,3.09,3.09,0,0,1,1.37-1.56,4,4,0,0,1,2-.52,3.41,3.41,0,0,1,2.23.71,3.27,3.27,0,0,1,1.11,2l-1.38.22a2.43,2.43,0,0,0-.69-1.3,1.83,1.83,0,0,0-1.21-.43,2.14,2.14,0,0,0-1.73.79,3.7,3.7,0,0,0-.68,2.47,3.89,3.89,0,0,0,.65,2.49,2.08,2.08,0,0,0,1.69.78,2,2,0,0,0,1.38-.52,2.57,2.57,0,0,0,.71-1.61Zm2.08-1.13a4.45,4.45,0,0,1,1.29-3.51,3.8,3.8,0,0,1,2.62-.95,3.71,3.71,0,0,1,2.81,1.16,4.42,4.42,0,0,1,1.1,3.18,5.6,5.6,0,0,1-.5,2.58,3.42,3.42,0,0,1-1.4,1.47,4.06,4.06,0,0,1-2,.51,3.75,3.75,0,0,1-2.84-1.14,4.68,4.68,0,0,1-1.07-3.3Zm1.45,0a3.64,3.64,0,0,0,.7,2.44,2.29,2.29,0,0,0,3.51,0,3.74,3.74,0,0,0,.7-2.49,3.47,3.47,0,0,0-.71-2.39,2.21,2.21,0,0,0-1.74-.82,2.25,2.25,0,0,0-1.76.81,3.64,3.64,0,0,0-.7,2.45Zm8,4.25V13.86h1.27v1.19a2.93,2.93,0,0,1,1-1,2.86,2.86,0,0,1,1.49-.39,2.69,2.69,0,0,1,1.51.4,2.1,2.1,0,0,1,.84,1.1,3,3,0,0,1,2.58-1.5,2.5,2.5,0,0,1,1.91.71,3.05,3.05,0,0,1,.67,2.16v5.84h-1.41V17a4.4,4.4,0,0,0-.13-1.24,1.32,1.32,0,0,0-.5-.62,1.62,1.62,0,0,0-.86-.23,2,2,0,0,0-1.46.59,2.72,2.72,0,0,0-.58,1.92v4.94h-1.41V16.84a2.61,2.61,0,0,0-.34-1.45,1.35,1.35,0,0,0-1.14-.47,1.94,1.94,0,0,0-1.1.32,1.8,1.8,0,0,0-.74.94,5.37,5.37,0,0,0-.23,1.77v4.42Z"/><path class="cls-4" d="M39.91,25A2.88,2.88,0,0,0,39,24.6a4.08,4.08,0,0,0-.93-.11H36.44v5.58h1.67A4.15,4.15,0,0,0,39,30a2.78,2.78,0,0,0,.87-.35h0a2.78,2.78,0,0,0,0-4.66Zm-2.73.24h1.14l.44.05a2.1,2.1,0,0,1,.81.33h0a1.93,1.93,0,0,1,.87,1.69,2.38,2.38,0,0,1-.2.95,1.92,1.92,0,0,1-.6.74,2.1,2.1,0,0,1-.79.35l-.42.05-.46,0h-.79Z"/><rect class="cls-4" x="43.02" y="25.9" width="0.71" height="4.17"/><path class="cls-4" d="M49.12,26.42a1.84,1.84,0,0,0-1.45-.63,2.09,2.09,0,0,0-1.54.65A2.17,2.17,0,0,0,45.5,28a2.05,2.05,0,0,0,.64,1.53,2.08,2.08,0,0,0,1.53.63,1.93,1.93,0,0,0,.93-.22,1.58,1.58,0,0,0,.52-.39v0a1.38,1.38,0,0,1-.36,1,1.29,1.29,0,0,1-1,.38A1.37,1.37,0,0,1,46.39,30l0-.06h-.75l0,.13a2,2,0,0,0,.8,1.13,2.29,2.29,0,0,0,1.33.39,2,2,0,0,0,1.65-.77,1.81,1.81,0,0,0,.33-.73,2.34,2.34,0,0,0,0-.39c0-.1,0-.24,0-.39V25.9h-.71Zm-1.45,0a1.37,1.37,0,0,1,1,.46A1.49,1.49,0,0,1,49.15,28a1.47,1.47,0,0,1-.43,1.07,1.42,1.42,0,0,1-1,.45,1.39,1.39,0,0,1-1-.45,1.57,1.57,0,0,1,0-2.14A1.36,1.36,0,0,1,47.67,26.45Z"/><rect class="cls-4" x="51.82" y="25.9" width="0.71" height="4.17"/><polygon class="cls-4" points="55.68 24.5 54.98 24.5 54.98 25.9 54.14 25.9 54.14 26.56 54.98 26.56 54.98 30.07 55.68 30.07 55.68 26.56 56.63 26.56 56.63 25.9 55.68 25.9 55.68 24.5"/><path class="cls-4" d="M61.73,26.41a1.82,1.82,0,0,0-1.45-.62,2.21,2.21,0,0,0-1.58.62A2.11,2.11,0,0,0,58,28a2.08,2.08,0,0,0,.65,1.56,2.2,2.2,0,0,0,1.59.63,1.84,1.84,0,0,0,1.45-.61v.52h.72V25.9h-.72Zm-1.45,0a1.39,1.39,0,0,1,1.06.46A1.47,1.47,0,0,1,61.77,28a1.44,1.44,0,0,1-.43,1.07,1.38,1.38,0,0,1-1.06.45,1.47,1.47,0,0,1-1.09-.43A1.42,1.42,0,0,1,58.75,28a1.51,1.51,0,0,1,.43-1.1A1.48,1.48,0,0,1,60.28,26.45Z"/><rect class="cls-4" x="64.4" y="24.49" width="0.71" height="5.57"/><path class="cls-4" d="M72.11,26.84l-.42-.13a2.75,2.75,0,0,1-.4-.16.69.69,0,0,1-.38-.63.76.76,0,0,1,.25-.59.86.86,0,0,1,.62-.24.77.77,0,0,1,.6.26.82.82,0,0,1,.25.61v.1h.74V26a1.47,1.47,0,0,0-.47-1.11,1.53,1.53,0,0,0-1.12-.45,1.64,1.64,0,0,0-1.13.43,1.46,1.46,0,0,0-.48,1.11A1.3,1.3,0,0,0,70.62,27a1.88,1.88,0,0,0,.47.27,4.79,4.79,0,0,0,.55.19l.42.14a1.49,1.49,0,0,1,.36.21.81.81,0,0,1,.34.7.89.89,0,0,1-.29.68.92.92,0,0,1-.69.28.91.91,0,0,1-1-1v-.1H70v.1a1.61,1.61,0,0,0,.5,1.23,1.76,1.76,0,0,0,1.25.47A1.68,1.68,0,0,0,73,29.68a1.59,1.59,0,0,0,.51-1.2,1.55,1.55,0,0,0-.39-1.07A2.16,2.16,0,0,0,72.11,26.84Z"/><path class="cls-4" d="M77.15,25.79a2.08,2.08,0,0,0-1.53.65A2.14,2.14,0,0,0,75,28a2.17,2.17,0,0,0,2.17,2.18,2.16,2.16,0,0,0,1.25-.4,2.19,2.19,0,0,0,.79-1.06l0-.14H78.5l0,.07a1.27,1.27,0,0,1-.53.64,1.49,1.49,0,0,1-.8.23,1.38,1.38,0,0,1-1-.4,1.33,1.33,0,0,1-.45-.83h3.6V28a2.17,2.17,0,0,0-.63-1.56A2.1,2.1,0,0,0,77.15,25.79Zm1.44,1.82H75.73a1.56,1.56,0,0,1,.47-.8,1.42,1.42,0,0,1,1-.36,1.37,1.37,0,0,1,1,.36A1.57,1.57,0,0,1,78.59,27.61Z"/><path class="cls-4" d="M82.16,26a1,1,0,0,0-.31.26V25.9h-.71v4.17h.71V27.64a1,1,0,0,1,1-1.11H83v-.74h-.11A1.89,1.89,0,0,0,82.16,26Z"/><polygon class="cls-4" points="86.32 29.07 84.99 25.9 84.22 25.9 85.98 30.07 86.68 30.07 88.44 25.9 87.67 25.9 86.32 29.07"/><rect class="cls-4" x="89.95" y="25.9" width="0.71" height="4.17"/><path class="cls-4" d="M96,28.75a1.34,1.34,0,0,1-1.31.75,1.53,1.53,0,0,1-1.09-2.61,1.51,1.51,0,0,1,1.09-.44,1.38,1.38,0,0,1,1.31.79l0,.06h.77l-.06-.14a2.08,2.08,0,0,0-.82-1,2.33,2.33,0,0,0-1.24-.36,2.18,2.18,0,0,0-1.57.64,2.17,2.17,0,0,0,0,3.11,2.21,2.21,0,0,0,1.58.62,2.18,2.18,0,0,0,2.06-1.32l.07-.14h-.78Z"/><path class="cls-4" d="M100.54,25.79a2.08,2.08,0,0,0-1.53.65A2.14,2.14,0,0,0,98.38,28a2.17,2.17,0,0,0,2.17,2.18,2.16,2.16,0,0,0,2-1.46l0-.14h-.75l0,.07a1.21,1.21,0,0,1-.52.64,1.49,1.49,0,0,1-.8.23,1.38,1.38,0,0,1-1-.4,1.33,1.33,0,0,1-.45-.83h3.6V28a2.18,2.18,0,0,0-.64-1.56A2.07,2.07,0,0,0,100.54,25.79ZM102,27.61H99.12a1.49,1.49,0,0,1,.47-.8,1.4,1.4,0,0,1,1-.36,1.37,1.37,0,0,1,1,.36A1.49,1.49,0,0,1,102,27.61Z"/><path class="cls-4" d="M110.88,24.83a1.84,1.84,0,0,0-.7-.28l-.37,0-.37,0h-1.59v5.58h.74V27.9h1.22l.37,0a1.83,1.83,0,0,0,.7-.27h0a1.57,1.57,0,0,0,.71-1.38A1.55,1.55,0,0,0,110.88,24.83Zm0,1.37a.91.91,0,0,1-.57.89,1.08,1.08,0,0,1-.41.11h-1.29v-2h1.06l.23,0a1.08,1.08,0,0,1,.41.11h0A.91.91,0,0,1,110.86,26.2Z"/><path class="cls-4" d="M114.2,26a1,1,0,0,0-.31.26V25.9h-.71v4.17h.71V27.64a1,1,0,0,1,1-1.11H115v-.74h-.11A1.89,1.89,0,0,0,114.2,26Z"/><path class="cls-4" d="M118.61,25.79a2.09,2.09,0,0,0-1.54.66,2.17,2.17,0,0,0-.63,1.56,2,2,0,0,0,.64,1.51A2.19,2.19,0,0,0,120.79,28a2.22,2.22,0,0,0-2.18-2.19Zm0,3.71a1.38,1.38,0,0,1-1-.44,1.46,1.46,0,0,1-.43-1.06,1.57,1.57,0,0,1,.42-1.08,1.34,1.34,0,0,1,1-.47,1.39,1.39,0,0,1,1,.45,1.46,1.46,0,0,1,.43,1.06,1.59,1.59,0,0,1-.41,1.09A1.4,1.4,0,0,1,118.61,29.5Z"/><polygon class="cls-4" points="124.22 29.07 122.88 25.9 122.12 25.9 123.88 30.07 124.57 30.07 126.33 25.9 125.57 25.9 124.22 29.07"/><rect class="cls-4" x="127.85" y="25.9" width="0.71" height="4.17"/><path class="cls-4" d="M134,26.4a1.91,1.91,0,0,0-1.46-.61,2.21,2.21,0,0,0-1.58.62,2.1,2.1,0,0,0-.65,1.56,2,2,0,0,0,.65,1.56,2.16,2.16,0,0,0,1.58.63,1.87,1.87,0,0,0,1.46-.62v.53h.71V24.49H134Zm-1.46.05a1.39,1.39,0,0,1,1.06.46,1.47,1.47,0,0,1,.43,1.07,1.44,1.44,0,0,1-.43,1.07,1.38,1.38,0,0,1-1.06.45,1.47,1.47,0,0,1-1.09-.43,1.45,1.45,0,0,1-.44-1.08,1.52,1.52,0,0,1,.44-1.1A1.46,1.46,0,0,1,132.58,26.45Z"/><path class="cls-4" d="M138.71,25.79a2.1,2.1,0,0,0-1.54.65,2.18,2.18,0,0,0-.63,1.54,2.19,2.19,0,0,0,2.17,2.18,2.16,2.16,0,0,0,2-1.46l.05-.14h-.75l0,.07a1.25,1.25,0,0,1-.52.64,1.49,1.49,0,0,1-.8.23,1.38,1.38,0,0,1-1-.4,1.24,1.24,0,0,1-.45-.83h3.59l0-.25a2.18,2.18,0,0,0-.64-1.56A2.07,2.07,0,0,0,138.71,25.79Zm1.43,1.82h-2.85a1.49,1.49,0,0,1,.47-.8,1.45,1.45,0,0,1,1.91,0A1.49,1.49,0,0,1,140.14,27.61Z"/><path class="cls-4" d="M144.43,25.79a1.79,1.79,0,0,0-.71.18,1,1,0,0,0-.32.26V25.9h-.7v4.17h.7V27.64a1,1,0,0,1,1-1.11h.1v-.74Z"/></g></g></svg>