<svg id="Layer_1" data-name="Layer 1" xmlns="http://www.w3.org/2000/svg" viewBox="0 0 64.67 64.67"><defs><style>.cls-1{fill:#ef5b9d;}.cls-2{fill:#e43f91;}.cls-3{fill:#a72b74;}</style></defs><title>bad</title><circle class="cls-1" cx="32.33" cy="32.33" r="32.33"/><path class="cls-2" d="M306.25,418.46a32.34,32.34,0,0,1-31.95-27.33,32.77,32.77,0,0,0-.38,5,32.33,32.33,0,0,0,64.66,0,32.77,32.77,0,0,0-.38-5A32.34,32.34,0,0,1,306.25,418.46Z" transform="translate(-273.92 -363.79)"/><path class="cls-3" d="M298.75,387.71a4.09,4.09,0,1,1-4.08-4.08A4.08,4.08,0,0,1,298.75,387.71Z" transform="translate(-273.92 -363.79)"/><path class="cls-3" d="M321.92,387.71a4.09,4.09,0,1,1-4.09-4.08A4.09,4.09,0,0,1,321.92,387.71Z" transform="translate(-273.92 -363.79)"/><path class="cls-3" d="M320.3,412.35a3,3,0,0,1-2.12-.87,16.85,16.85,0,0,0-23.86,0,3,3,0,0,1-4.24-4.25,22.86,22.86,0,0,1,32.34,0,3,3,0,0,1-2.12,5.12Z" transform="translate(-273.92 -363.79)"/></svg>