<svg id="Layer_1" data-name="Layer 1" xmlns="http://www.w3.org/2000/svg" viewBox="0 0 64.67 64.67"><defs><style>.cls-1{fill:#20ade4;}.cls-2{fill:#1999d6;}.cls-3{fill:#166ea0;}</style></defs><title>good</title><circle class="cls-1" cx="32.33" cy="32.33" r="32.33"/><path class="cls-2" d="M306.75,418.46a32.34,32.34,0,0,1-31.95-27.33,32.77,32.77,0,0,0-.38,5,32.33,32.33,0,0,0,64.66,0,32.77,32.77,0,0,0-.38-5A32.34,32.34,0,0,1,306.75,418.46Z" transform="translate(-274.42 -363.79)"/><path class="cls-3" d="M299.25,387.71a4.09,4.09,0,1,1-4.08-4.08A4.08,4.08,0,0,1,299.25,387.71Z" transform="translate(-274.42 -363.79)"/><path class="cls-3" d="M322.42,387.71a4.09,4.09,0,1,1-4.09-4.08A4.09,4.09,0,0,1,322.42,387.71Z" transform="translate(-274.42 -363.79)"/><path class="cls-3" d="M306.75,414.18a22.72,22.72,0,0,1-16.17-6.7,3,3,0,0,1,4.24-4.25,16.85,16.85,0,0,0,23.86,0,3,3,0,0,1,4.24,4.25A22.72,22.72,0,0,1,306.75,414.18Z" transform="translate(-274.42 -363.79)"/></svg>