<svg id="Layer_1" data-name="Layer 1" xmlns="http://www.w3.org/2000/svg" viewBox="0 0 64.67 64.67"><defs><style>.cls-1{fill:#f4f4f5;}.cls-2{fill:#e8e8e8;}.cls-3{fill:#bdbec0;}</style></defs><title>unknown</title><circle class="cls-1" cx="32.33" cy="32.33" r="32.33"/><path class="cls-2" d="M306,418.21a32.34,32.34,0,0,1-31.95-27.33,32.77,32.77,0,0,0-.38,5,32.33,32.33,0,0,0,64.66,0,32.77,32.77,0,0,0-.38-5A32.34,32.34,0,0,1,306,418.21Z" transform="translate(-273.67 -363.54)"/><path class="cls-3" d="M298.5,387.46a4.09,4.09,0,1,1-4.08-4.08A4.08,4.08,0,0,1,298.5,387.46Z" transform="translate(-273.67 -363.54)"/><path class="cls-3" d="M321.67,387.46a4.09,4.09,0,1,1-4.09-4.08A4.09,4.09,0,0,1,321.67,387.46Z" transform="translate(-273.67 -363.54)"/><path class="cls-3" d="M320.05,410.1H292a3,3,0,1,1,0-6h28.1a3,3,0,1,1,0,6Z" transform="translate(-273.67 -363.54)"/></svg>